<svg version="1.1" id="Layer_1" xmlns="http://www.w3.org/2000/svg" x="0" y="0" viewBox="0 0 200 200" xml:space="preserve">
    <style>
        .st1{fill:red;stroke:#00f;stroke-width:2;stroke-miterlimit:10}
    </style>
    <g opacity=".85">
        <path class="st1" d="M116.88 145.79l.03.22c2.05-.36 4.13-.58 6.15-1.1 3.73-.97 7.02-2.9 9.44-6.3 2.7-3.8 3.71-8.17 3.16-12.95-.59-5.08-2.21-9.67-5.43-13.49-2.41-2.85-4.84-5.7-7.08-8.71-3.81-5.12-6.88-10.8-9.79-16.57-1.8-3.58-3.71-7.02-6.43-9.88-3.54-3.72-7.56-4.94-12.22-3.24-3 1.09-5.37 3.19-7.36 5.85-2.96 3.95-5.81 8.01-9.11 11.64-2.42 2.66-4.96 5.13-8.09 6.75-2 1.04-4.01 2.07-5.97 3.21-3.03 1.76-5.61 4.15-7.19 7.54-2.09 4.48-3.24 9.19-2.31 14.34.76 4.19 2.2 7.91 5.05 10.87 2.48 2.57 5.42 4.22 8.62 5.36 3.78 1.34 7.68 1.63 11.63 1.66 2.88.02 5.77.21 8.63.49 3.11.31 6.21.75 9.3 1.25 4.05.66 8.09 1.42 12.14 2.15 2.26.42 4.49 1.21 6.83.91zM135.05 42.1c.05-3.04-.44-5.97-1.57-8.75-1.92-4.73-6-7.02-10.38-5.82-2.78.76-5.17 2.33-7.22 4.5-6.54 6.93-9.85 15.48-10.17 25.45-.12 3.68.45 7.26 2.26 10.45 1.82 3.2 4.4 4.87 7.9 4.67 2.08-.11 3.94-.9 5.69-2.05 3.43-2.26 6.02-5.44 8.15-9.14 3.38-5.89 5.24-12.3 5.34-19.31zM71.9 74.25c-.19-1.85-.28-3.72-.58-5.55-1.04-6.23-3.1-11.98-6.79-16.9-1.93-2.57-4.07-4.87-6.86-6.28-2.13-1.08-4.35-1.56-6.66-.92-2.77.77-4.64 2.81-5.89 5.55-2.09 4.56-2.28 9.45-1.7 14.4.68 5.76 2.5 11.08 5.43 15.91 2.15 3.53 4.73 6.56 8.24 8.48 5.22 2.85 10.09 1.1 12.79-4.61 1.49-3.16 1.92-6.56 2.02-10.08zm27.92-26.27c-.05-4.14-.63-8.42-2-12.54-1.21-3.64-2.9-6.96-5.55-9.58-1.57-1.56-3.38-2.67-5.48-2.92-2.68-.33-5.02.68-7.01 2.68-2.52 2.54-4.04 5.78-4.97 9.34-2.19 8.43-1.73 16.73 1.34 24.81 1.24 3.27 3 6.19 5.59 8.39 3.73 3.16 8.08 3.06 11.63-.28 1.37-1.29 2.41-2.88 3.27-4.61 2.32-4.69 3.13-9.77 3.18-15.29zm28.2 40.29c-.05 2.04.28 4.01.88 5.93 1.47 4.73 5.42 7.39 9.86 6.63 3.19-.54 6-2.08 8.49-4.28 6.78-6.01 10.9-13.78 12.2-23.32.4-2.97.28-5.94-.62-8.82-1.5-4.83-5.1-7.34-9.62-6.81-2.82.33-5.27 1.63-7.59 3.31-3.61 2.62-6.34 6.2-8.67 10.17-3.06 5.23-4.78 10.93-4.93 17.19z"/>
        <path class="st1" d="M116.88 145.79c-2.35.3-4.57-.5-6.84-.91-4.04-.73-8.08-1.49-12.14-2.15-3.09-.5-6.19-.94-9.3-1.25-2.87-.28-5.75-.47-8.63-.49-3.95-.02-7.85-.31-11.63-1.66-3.19-1.14-6.14-2.79-8.62-5.36-2.85-2.96-4.29-6.68-5.05-10.87-.93-5.16.22-9.86 2.31-14.34 1.58-3.39 4.16-5.79 7.19-7.54 1.96-1.14 3.97-2.17 5.97-3.21 3.13-1.62 5.67-4.09 8.09-6.75 3.3-3.63 6.15-7.69 9.11-11.64 1.99-2.66 4.36-4.76 7.36-5.85 4.66-1.7 8.68-.49 12.22 3.24 2.72 2.86 4.63 6.3 6.43 9.88 2.91 5.78 5.98 11.46 9.79 16.57 2.24 3.01 4.67 5.86 7.08 8.71 3.22 3.81 4.84 8.4 5.43 13.49.55 4.77-.45 9.14-3.16 12.95-2.42 3.41-5.71 5.33-9.44 6.3-2.02.52-4.1.75-6.15 1.1 0-.07-.01-.15-.02-.22zM135.05 42.1c-.11 7.01-1.96 13.42-5.35 19.31-2.12 3.7-4.72 6.88-8.15 9.14-1.75 1.16-3.61 1.94-5.69 2.05-3.49.19-6.07-1.47-7.9-4.67-1.82-3.19-2.38-6.77-2.26-10.45.33-9.97 3.64-18.52 10.17-25.45 2.05-2.17 4.44-3.74 7.22-4.5 4.38-1.2 8.46 1.09 10.38 5.82 1.14 2.78 1.64 5.71 1.58 8.75zM71.9 74.25c-.1 3.52-.54 6.92-2.03 10.07-2.7 5.71-7.56 7.46-12.79 4.61-3.51-1.92-6.09-4.95-8.24-8.48-2.93-4.82-4.75-10.15-5.43-15.91-.58-4.94-.39-9.83 1.7-14.4 1.25-2.73 3.12-4.78 5.89-5.55 2.31-.64 4.53-.16 6.66.92 2.79 1.41 4.94 3.72 6.86 6.28 3.69 4.92 5.75 10.67 6.79 16.9.31 1.83.41 3.71.59 5.56zm27.92-26.27c-.04 5.52-.85 10.6-3.18 15.28-.86 1.74-1.9 3.32-3.27 4.61-3.55 3.34-7.9 3.44-11.63.28-2.59-2.2-4.35-5.11-5.59-8.39-3.07-8.08-3.52-16.38-1.34-24.81.93-3.56 2.45-6.8 4.97-9.34 1.98-2 4.32-3.01 7.01-2.68 2.1.26 3.91 1.36 5.48 2.92 2.65 2.62 4.34 5.94 5.55 9.58 1.37 4.13 1.95 8.41 2 12.55zm28.2 40.29c.15-6.25 1.87-11.96 4.93-17.18 2.32-3.97 5.06-7.55 8.67-10.17 2.31-1.68 4.77-2.98 7.59-3.31 4.52-.53 8.12 1.98 9.62 6.81.89 2.88 1.02 5.84.62 8.82-1.3 9.54-5.41 17.31-12.2 23.32-2.49 2.21-5.3 3.74-8.49 4.28-4.44.75-8.39-1.9-9.86-6.63-.61-1.93-.94-3.9-.88-5.94z"/>
    </g>
    <text transform="matrix(.9015 0 0 1 9.72 173.803)" font-size="22.853" font-family="Arial-Black">
        Park ❣️ Hospital
    </text>
</svg>
